<svg width="114" height="21" viewBox="0 0 114 21">
<path d="M6.62373 12.9921V19.8721H-0.000273347V0.288069H6.30373L9.85573 8.38407L13.4397 0.288069H19.7117V19.8721H13.0877V12.9921L11.5517 16.5121H8.15973L6.62373 12.9921ZM28.905 0.288069V19.8721H22.281V0.288069H28.905ZM41.2292 15.4881H38.0612V19.8721H31.4372V0.288069H41.3252C43.5012 0.288069 45.1546 1.0134 46.2852 2.46407C47.4372 3.8934 48.0132 5.7174 48.0132 7.93607C48.0132 9.34407 47.7252 10.6241 47.1492 11.7761C46.5946 12.9281 45.8052 13.8347 44.7812 14.4961C43.7572 15.1574 42.5732 15.4881 41.2292 15.4881ZM41.2932 7.93607C41.2932 6.6774 40.7919 6.04807 39.7892 6.04807H38.0612V9.76007H39.6612C40.1732 9.76007 40.5679 9.60007 40.8452 9.28007C41.1439 8.96007 41.2932 8.51207 41.2932 7.93607ZM56.1237 0.288069V19.8721H49.4997V0.288069H56.1237ZM73.76 18.3041C72.672 19.3494 71.1573 19.8721 69.216 19.8721H58.656V0.288069H69.088C70.9226 0.288069 72.3306 0.768069 73.312 1.72807C74.3146 2.68807 74.816 4.0534 74.816 5.82407C74.816 6.76274 74.6666 7.58407 74.368 8.28807C74.0693 8.97074 73.664 9.5254 73.152 9.95207C73.92 10.3574 74.4853 10.8587 74.848 11.4561C75.232 12.0321 75.424 12.8641 75.424 13.9521C75.424 15.7867 74.8693 17.2374 73.76 18.3041ZM68.64 6.49607C68.64 5.6854 68.2026 5.28007 67.328 5.28007H64.864V7.80807H67.328C68.2026 7.80807 68.64 7.37074 68.64 6.49607ZM68.64 13.5681C68.64 12.7574 68.2026 12.3521 67.328 12.3521H64.864V14.8801H67.328C68.2026 14.8801 68.64 14.4427 68.64 13.5681ZM93.217 17.8241C91.617 19.4027 89.2703 20.1921 86.177 20.1921C83.0836 20.1921 80.737 19.4027 79.137 17.8241C77.537 16.2241 76.737 13.6427 76.737 10.0801C76.737 6.5174 77.537 3.94674 79.137 2.36807C80.737 0.789402 83.0836 6.86646e-05 86.177 6.86646e-05C89.2703 6.86646e-05 91.617 0.789402 93.217 2.36807C94.817 3.94674 95.617 6.5174 95.617 10.0801C95.617 13.6427 94.817 16.2241 93.217 17.8241ZM84.097 13.0881C84.5236 13.6641 85.217 13.9521 86.177 13.9521C87.137 13.9521 87.8196 13.6641 88.225 13.0881C88.6516 12.4907 88.865 11.4881 88.865 10.0801C88.865 8.67207 88.6516 7.68007 88.225 7.10407C87.8196 6.50674 87.137 6.20807 86.177 6.20807C85.217 6.20807 84.5236 6.50674 84.097 7.10407C83.6916 7.68007 83.489 8.67207 83.489 10.0801C83.489 11.4881 83.6916 12.4907 84.097 13.0881ZM107.226 12.7681V19.8721H100.602V12.7681L94.234 0.288069H101.114L103.898 6.52807L106.714 0.288069H113.594L107.226 12.7681Z" fill="white"/>
</svg>
